<svg xmlns="http://www.w3.org/2000/svg" xmlns:xlink="http://www.w3.org/1999/xlink" width="77.238" height="77.914" viewBox="0 0 77.238 77.914">
  <defs>
    <linearGradient id="linear-gradient" x1="0.5" x2="0.5" y2="1" gradientUnits="objectBoundingBox">
      <stop offset="0" stop-color="#f8f8f8"/>
      <stop offset="1" stop-color="#e9e9e9"/>
    </linearGradient>
  </defs>
  <g id="Group_3970" data-name="Group 3970" transform="translate(-5815 -5601)">
    <path id="Path_5700" data-name="Path 5700" d="M59.695,77.914H17.544A17.544,17.544,0,0,1,0,60.37V17.544A17.544,17.544,0,0,1,17.544,0H59.695A17.544,17.544,0,0,1,77.238,17.544V60.37A17.544,17.544,0,0,1,59.695,77.914" transform="translate(5815 5601)" fill="url(#linear-gradient)"/>
    <path id="Path_5701" data-name="Path 5701" d="M100.91,44.392H99.59V42.438a1.528,1.528,0,0,0-1.527-1.527h-10.7a1.529,1.529,0,0,0-1.527,1.527v1.954h-1.32V42.438a2.85,2.85,0,0,1,2.847-2.847h10.7a2.85,2.85,0,0,1,2.847,2.847Z" transform="translate(5760.874 5580.441)" fill="#161614"/>
    <path id="Path_5702" data-name="Path 5702" d="M68.857,76.991V69.807a1.992,1.992,0,0,0-1.992-1.992H29.274a1.992,1.992,0,0,0-1.992,1.992v7.044A91.2,91.2,0,0,0,48.07,79.412a93.126,93.126,0,0,0,20.788-2.422" transform="translate(5805.518 5558.426)" fill="#161614"/>
    <path id="Path_5703" data-name="Path 5703" d="M50.554,117.551v2.095a1.838,1.838,0,0,1-1.838,1.838H47.465a1.838,1.838,0,0,1-1.838-1.838v-2.1a93.889,93.889,0,0,1-18.344-2.482v13.452a1.992,1.992,0,0,0,1.992,1.992h37.59a1.992,1.992,0,0,0,1.992-1.992V115.206a95.594,95.594,0,0,1-18.3,2.345" transform="translate(5805.518 5521.568)" fill="#161614"/>
  </g>
</svg>
