<?xml version="1.0" encoding="UTF-8"?>
<svg width="120" height="120" viewBox="0 0 120 120" xmlns="http://www.w3.org/2000/svg">
  <style>
    .primary { fill: #F44336; }
    .secondary { fill: #EF9A9A; }
  </style>
  <!-- Wrench -->
  <path d="M35 80c-8.3 0-15-6.7-15-15s6.7-15 15-15c2.8 0 5.4.8 7.6 2.1L75 20l5 5-32.4 32.4c1.3 2.2 2.1 4.8 2.1 7.6 0 8.3-6.7 15-15 15z" class="secondary"/>
  <!-- Gear -->
  <path d="M95 65c0-1.7-.3-3.3-.8-4.8l5.4-4.1-5-8.7-6.6 1.7c-2.2-2-4.9-3.4-7.9-4.1V38h-10v7c-3 .7-5.7 2.1-7.9 4.1l-6.6-1.7-5 8.7 5.4 4.1c-.5 1.5-.8 3.1-.8 4.8s.3 3.3.8 4.8L51.6 74l5 8.7 6.6-1.7c2.2 2 4.9 3.4 7.9 4.1v7h10v-7c3-.7 5.7-2.1 7.9-4.1l6.6 1.7 5-8.7-5.4-4.1c.5-1.5.8-3.1.8-4.8z" class="primary"/>
  <circle cx="70" cy="65" r="10" fill="#fff"/>
</svg> 