<?xml version="1.0" encoding="UTF-8"?>
<svg width="120" height="120" viewBox="0 0 120 120" xmlns="http://www.w3.org/2000/svg">
  <style>
    .primary { fill: #2196F3; }
    .secondary { fill: #64B5F6; }
  </style>
  <!-- Code Window Background -->
  <rect x="10" y="10" width="100" height="80" rx="4" class="secondary" />
  <!-- Window Header -->
  <rect x="10" y="10" width="100" height="20" rx="4" class="primary" />
  <!-- Window Controls -->
  <circle cx="25" cy="20" r="3" fill="#fff"/>
  <circle cx="35" cy="20" r="3" fill="#fff"/>
  <circle cx="45" cy="20" r="3" fill="#fff"/>
  <!-- Code Lines -->
  <rect x="20" y="40" width="60" height="4" rx="2" fill="#fff"/>
  <rect x="20" y="50" width="40" height="4" rx="2" fill="#fff"/>
  <rect x="20" y="60" width="70" height="4" rx="2" fill="#fff"/>
  <rect x="20" y="70" width="50" height="4" rx="2" fill="#fff"/>
  <!-- Gear Icon -->
  <path d="M95 65a15 15 0 1 1-30 0 15 15 0 0 1 30 0z" class="primary"/>
  <path d="M80 55a10 10 0 1 1 0 20 10 10 0 0 1 0-20z" fill="#fff"/>
</svg> 