<svg viewBox="0 0 70 79" fill="none" xmlns="http://www.w3.org/2000/svg"><path d="M51.795 58.16c.517 0 .998-.23 1.411-.383 1.342-.537 2.72-.959 4.061-1.38 1.446-.5 2.891-1.037 4.44-.806 1.445.23 2.718.767 3.372 2.378.379.92.344 1.918 0 2.877-.516 1.611-1.686 2.57-2.96 3.453a96 96 0 0 1-4.095 2.685c-1.686 1.036-3.407 2.071-5.127 2.992-1.583.844-3.132 1.803-4.715 2.647-1.136.614-2.271 1.19-3.407 1.765-.93.498-1.893.997-2.822 1.457-.998.46-2.03.921-3.063 1.343-.895.384-1.755.806-2.684 1.074-.998.269-1.996.537-3.063.537-1.858 0-3.717-.268-5.54-.499a37 37 0 0 1-4.027-.69c-.964-.23-1.962-.345-2.96-.537-1.514-.269-2.994-.69-4.474-1.036-1.342-.307-2.718-.614-4.06-.997-1.102-.269-2.168-.614-3.235-.92-1.136-.346-2.306-.653-3.442-.998a53 53 0 0 1-2.615-.844c-.447-.154-.792-.92-.723-1.458.103-.729.482-1.19 1.067-1.227.826-.077 1.583.383 2.375.536.757.154 1.445.538 2.237.653.447.076.86.23 1.273.383.723.23 1.514.345 2.202.69.482.231 1.033.308 1.515.384.825.154 1.583.46 2.409.614.757.154 1.514.384 2.236.537 1.067.23 2.134.576 3.235.767.93.154 1.893.422 2.822.576 1.033.192 2.065.345 3.098.499 1.238.23 2.443.268 3.682.46 1.136.153 2.306.307 3.441.269.757 0 1.549-.384 2.272-.614.86-.307 1.72-.614 2.58-.998a50 50 0 0 0 2.065-.959c.998-.46 1.962-.92 2.926-1.42.86-.421 1.686-.843 2.512-1.303a194 194 0 0 1 2.718-1.496c1.102-.614 2.237-1.19 3.304-1.88a40 40 0 0 1 2.134-1.228c.93-.499 1.79-1.112 2.684-1.65 1.102-.651 2.168-1.342 3.235-2.032.757-.5 1.549-.921 2.134-1.65.069-.077.138-.115.172-.23.206-.422.62-.806.378-1.343-.31-.614-.963-.729-1.514-.767-.723-.038-1.445.192-2.133.422-1.102.345-2.203.767-3.304 1.112-.964.307-1.927.73-2.89 1.036-.999.269-1.963.729-2.96.998-.964.268-1.893.69-2.857.997-.964.345-1.927.652-2.925.997-.207.077-.379.192-.585.23-.344.077-.413.269-.413.653 0 1.65-.998 2.877-2.375 3.529-1.79.806-3.682.844-5.54.652-1.274-.153-2.547-.23-3.82-.537a47 47 0 0 0-2.444-.499c-.757-.191-1.548-.268-2.271-.652-.447-.23-.964-.153-1.376-.46-.413-.307-.723-.73-.654-1.305s.24-.997.791-1.227c.688-.269 1.273.077 1.858.23.895.23 1.79.422 2.65.69 1.067.307 2.168.423 3.235.691.55.154 1.136.115 1.686.154 1.411.076 2.788.153 4.2-.077.412-.077.79-.23 1.1-.499.517-.46.413-1.726-.137-2.378-.689-.73-1.549-1.113-2.444-1.42-.998-.345-2.03-.729-3.097-.882-1.032-.153-2.03-.422-3.063-.537-1.858-.192-3.648-.806-5.196-1.995a35 35 0 0 0-3.339-2.263c-.791-.46-1.686-.767-2.546-1.074-1.652-.576-3.373-.614-5.128-.652a16.6 16.6 0 0 0-3.889.46c-1.514.345-3.028.806-4.473 1.42-1.102.46-2.168.997-3.27 1.534-.482.23-1.204-.154-1.48-.69-.275-.615-.103-1.535.379-1.842 1.411-.844 2.89-1.496 4.44-2.072 1.307-.498 2.65-.844 3.991-1.227.517-.154.413-.652.517-1.036.24-.96.378-1.918.62-2.877.137-.46.137-.92.24-1.381.034-.23-.103-.384-.24-.499-1.309-1.266-2.582-2.57-3.89-3.798-.998-.92-1.273-2.11-1.067-3.452.104-.652.482-1.19.895-1.611 1.101-1.151 2.203-2.264 3.304-3.415.24-.268.447-.575.757-.805.172-.115.103-.307.034-.46-.447-1.19-.757-2.417-1.1-3.645-.242-.805-.448-1.688-.723-2.493-.345-.96.275-2.84 1.1-3.376.655-.422 1.377-.576 2.135-.806.825-.23 1.617-.46 2.443-.652.585-.153 1.204-.268 1.79-.499.31-.115.481-.306.516-.652.137-1.342.447-2.647.688-3.99.103-.536.206-1.073.275-1.61.138-1.19 1.101-2.494 2.271-2.763.86-.191 1.515.116 2.272.307.62.154 1.17.422 1.755.576.86.268 1.72.498 2.581.805.344.154.55.077.792-.191.997-1.267 1.995-2.57 2.994-3.837.447-.575.929-1.15 1.583-1.496.688-.383 2.409-.115 2.994.499 1.066 1.112 1.961 2.34 2.994 3.49.344.384.722.768 1.032 1.228.206.269.413.307.654.23 1.17-.421 2.34-.958 3.51-1.342.757-.23 1.48-.69 2.306-.767 1.204-.154 2.58.69 2.96 2.071.481 1.726.825 3.453 1.17 5.217.068.422.24.806.31 1.228.068.345.378.422.653.46 1.205.154 2.34.499 3.51.768.585.115 1.205.268 1.79.422 1.617.498 2.409 2.263 2.065 3.836-.207.959-.517 1.88-.792 2.838-.275 1.036-.482 2.072-.826 3.07-.103.306-.069.613.207.882 1.032.997 2.065 2.033 3.097 3.03.482.46.964.92 1.342 1.496.826 1.266.62 3.223-.413 4.297-1.101 1.15-2.168 2.302-3.235 3.452-.172.192-.378.422-.585.614-.482.46-.103.92 0 1.304.344 1.343.826 2.647 1.205 3.952l.516 1.726c.275 1.074-.585 2.877-1.377 3.3-.894.46-1.858.613-2.822.805-1.066.23-2.099.46-3.131.767-.379.115-.654.575-.757 1.112z" fill="#6c757d"></path><path d="M22.334 14.888c-.31-.039-.413.038-.482.268-.379 1.113-.413 2.302-.689 3.414-.206.921-.24 1.842-.481 2.762-.104.384-.241.806-.482 1.151-.482.69-1.067 1.113-1.858 1.266-.93.192-1.824.499-2.72.767-.79.23-1.582.384-2.34.653-.515.153-.447.498-.378.882.103.422.31.806.413 1.266.207.844.447 1.688.723 2.493.31.883.654 1.765.688 2.724.034.729-.103 1.458-.516 2.033-.585.729-1.239 1.381-1.858 2.033-.792.844-1.618 1.688-2.41 2.532-.344.345-.31.614 0 .92 1.308 1.267 2.582 2.533 3.89 3.799.825.805 1.376 1.803 1.135 3.03-.24 1.381-.516 2.8-.86 4.143-.07.307 0 .346.206.346h.516c2.547-.077 5.094.115 7.503 1.15a23.6 23.6 0 0 1 4.026 2.264c1.342.92 2.616 1.995 4.302 2.263 1.136.192 2.306.46 3.476.69 1.548.307 3.097.653 4.577 1.19 1.307.46 2.512 1.15 3.441 2.34.138.153.275.268.413.153.826-.46 1.72-.652 2.581-.959 1.032-.383 2.065-.805 3.132-1.035.688-.192.86-.307.826-1.075-.035-1.035.413-1.841.929-2.608.585-.883 1.376-1.305 2.374-1.611 1.48-.422 2.994-.73 4.474-1.075.482-.115.585-.306.379-.805-.207-.576-.413-1.151-.55-1.765-.276-1.112-.69-2.148-.964-3.26-.172-.653-.448-1.266-.345-1.995.138-1.151.792-1.957 1.515-2.724 1.1-1.15 2.202-2.34 3.303-3.49.31-.308.241-.615 0-.845-1.1-1.112-2.202-2.225-3.338-3.26-1.652-1.535-1.892-2.57-1.445-4.489.413-1.765.998-3.453 1.376-5.217.138-.652.07-.767-.516-.92-.482-.116-.998-.23-1.48-.346-1.17-.23-2.305-.46-3.475-.767s-2.1-.998-2.444-2.379a62 62 0 0 1-.585-2.723c-.206-1.075-.447-2.11-.654-3.184-.069-.422-.31-.576-.688-.5-.344.078-.654.308-.964.423-1.376.46-2.718 1.036-4.06 1.496-.689.23-1.446.269-2.169-.077-.894-.422-1.41-1.304-2.064-2.033-.895-.997-1.755-2.071-2.65-3.107-.31-.384-.55-.307-.826.038a91 91 0 0 1-2.306 2.916c-.482.614-.895 1.304-1.48 1.803-.722.613-1.548 1.035-2.58.729-1.308-.422-2.616-.883-3.924-1.305-.55-.192-1.067-.498-1.583-.46zm-1.514-4.602c0 .69-.31 1.227-.826 1.342-.758.192-1.377-.153-1.721-.882a80 80 0 0 0-1.514-3.03c-.517-.96-.379-1.727.481-2.34.517-.346 1.308 0 1.721.805.585 1.113 1.17 2.263 1.755 3.376.138.23.069.499.103.729m31.904-3.99c.138.422-.206.73-.379 1.075-.55 1.112-1.135 2.148-1.755 3.222-.275.499-.963.767-1.41.537-.654-.307-.93-.959-.758-1.688.241-.997.826-1.765 1.24-2.609.206-.421.412-.805.619-1.227.344-.652.894-.92 1.514-.729.654.192.963.652.963 1.458zm6.779 15.46c-.07-.844.55-1.15 1.032-1.496.792-.537 1.617-1.036 2.443-1.573s1.515-.498 1.996.23c.413.614.31 1.535-.275 1.957-1.17.806-2.374 1.534-3.579 2.302-.55.345-1.858-.576-1.652-1.42zM4.956 48.531c0-.805.379-1.266 1.101-1.457.826-.23 1.618-.5 2.41-.73.378-.114.756-.23 1.135-.268.688-.077 1.273.422 1.411 1.113.103.537-.275 1.342-.826 1.61-.55.27-1.136.384-1.72.538-.62.192-1.24.383-1.893.537-.792.153-1.756-.154-1.652-1.381zm5.026-25.779c.103 1.343-1.17 1.612-1.962 1.19A39 39 0 0 1 5.13 22.1c-.93-.652-1.274-1.38-.482-2.34.344-.422 1.1-.614 1.548-.345 1.067.69 2.134 1.381 3.166 2.072.551.383.62.575.62 1.265M3.166 38.174H5.06c.688 0 1.204.652 1.204 1.458 0 .728-.585 1.38-1.239 1.38h-3.82c-.55 0-1.204-.805-1.204-1.38 0-.69.585-1.42 1.204-1.458zm32.626-34.68V5.49c0 .537-.379 1.227-.758 1.38-.516.193-1.238 0-1.582-.498-.138-.192-.138-.422-.138-.614-.069-1.572-.138-3.145 0-4.718.069-.767.55-1.074 1.342-1.036.55 0 1.067.614 1.101 1.228v2.263zM66.83 39.825h-1.789c-.757 0-1.135-.384-1.17-1.19-.069-.959.31-1.61 1.067-1.65 1.273-.038 2.581-.076 3.889 0 .723.04 1.204.614 1.17 1.497-.034.882-.447 1.304-1.273 1.304h-1.859zm-57.297-6.37c-.654-.192-1.411-.345-2.168-.614-.585-.192-1.205-.153-1.72-.652-.517-.537-.62-1.113-.31-1.88.171-.422.894-.767 1.376-.652 1.136.307 2.237.652 3.373.998.447.115.929.959.86 1.457-.069.73-.654 1.343-1.411 1.343m43.496-14.077c-.448.115-.792-.269-1.033-.691-.275-.537-.137-1.266.241-1.688.757-.844 1.549-1.688 2.306-2.57.516-.576 1.377-.576 1.893.038.413.537.447 1.381 0 1.918-.792.921-1.618 1.803-2.444 2.724-.24.307-.585.268-.963.268m-23.986-8.403c0 .768-.447 1.42-1.032 1.496-.688.115-1.273-.345-1.445-1.112-.31-1.228-.62-2.417-.93-3.644-.137-.46.276-1.343.723-1.573.516-.269 1.342-.039 1.617.46.138.269.31.499.345.844.137.844.344 1.688.585 2.532.103.307.103.652.172.997zM41.3 12.126c-.758 0-1.308-.575-1.24-1.457 0-.499.138-.998.276-1.496.24-.768.413-1.612.585-2.417.138-.576.688-1.074 1.308-1.074.619 0 1.1.498 1.17 1.112.034.537 0 1.036-.172 1.573-.207.729-.345 1.458-.482 2.225-.138.882-.723 1.496-1.411 1.496zm17.583 18.798c0-.69.378-1.266 1.101-1.458.998-.23 1.962-.575 2.96-.844 1.032-.268 1.79.46 1.686 1.573-.069.614-.447.997-.93 1.15-1.1.385-2.236.691-3.337.998-.689.192-1.446-.575-1.446-1.457zm1.754 13.656c.585.192 1.342.422 2.1.69.516.154 1.1.192 1.583.576.378.345.619.69.55 1.228-.034.537-.275.959-.757 1.189-.688.345-1.342 0-1.927-.192-.654-.23-1.342-.384-2.03-.614-.723-.23-1.102-.844-.999-1.65.104-.728.62-1.227 1.48-1.227M16.14 20.22c-.723.153-.998-.614-1.446-1.037-.585-.575-1.067-1.227-1.617-1.802-.62-.653-.585-1.382-.31-1.919.275-.575 1.17-.805 1.72-.46.276.153.482.422.689.69.585.691 1.204 1.343 1.824 2.034s.654 1.342.172 2.11c-.241.345-.55.422-.998.422z" fill="##6c757d"></path><path d="M42.775 51.064c-.516.115-.895-.384-1.342-.614a209 209 0 0 1-6.23-3.683c-.171-.114-.309-.038-.447 0a274 274 0 0 1-5.54 3.3c-.482.268-.998.575-1.48.844-.757.46-1.893-.23-1.858-1.151.034-1.074.24-2.148.447-3.223.034-.23.103-.498.138-.728.069-1.075.413-2.072.413-3.146 0-.384.137-.729.24-1.074.31-.998-.137-1.611-.722-2.225-1.17-1.266-2.375-2.532-3.545-3.798-.447-.46-.86-.96-1.342-1.42-.482-.498-.55-1.074-.379-1.726.138-.537.586-.729 1.067-.805 1.515-.23 3.029-.499 4.543-.73 1.067-.191 2.168-.268 3.235-.536.516-.154.55-.69.723-1.074.791-1.727 1.514-3.491 2.27-5.256.31-.69.655-1.38.999-2.071.31-.576.791-.691 1.342-.576.447.077.723.422.93.883.378.92.825 1.84 1.204 2.762.413.92.791 1.88 1.204 2.8.344.729.688 1.496 1.033 2.225.103.23.275.268.516.345.963.307 1.961.192 2.925.537.482.192 1.032.038 1.514.192 1.101.307 2.237.307 3.338.575.998.269 1.343 1.65.585 2.456-1.79 1.918-3.544 3.874-5.334 5.754-.31.345-.482.69-.378 1.189.378 1.803.55 3.606.86 5.447.172 1.036.447 2.072.413 3.146 0 .92-.482 1.42-1.342 1.42z" fill="#fff"></path></svg>