<?xml version="1.0" standalone="no"?>
<!DOCTYPE svg PUBLIC "-//W3C//DTD SVG 20010904//EN"
 "http://www.w3.org/TR/2001/REC-SVG-20010904/DTD/svg10.dtd">
<svg version="1.0" xmlns="http://www.w3.org/2000/svg"
 width="512.000000pt" height="512.000000pt" viewBox="0 0 512.000000 512.000000"
 preserveAspectRatio="xMidYMid meet">

<g transform="translate(0.000000,512.000000) scale(0.100000,-0.100000)"
fill="#6c757d" stroke="none">
<path d="M2383 5110 c-345 -27 -732 -141 -971 -286 -561 -341 -945 -939 -1032
-1609 -16 -123 -13 -423 5 -555 65 -462 270 -887 587 -1216 l87 -90 -100 -175
c-55 -96 -113 -196 -128 -224 -15 -27 -76 -134 -136 -238 -98 -170 -107 -190
-97 -212 7 -14 19 -28 27 -31 18 -7 349 74 369 90 17 14 556 949 556 965 0 6
-20 31 -43 55 -51 50 -107 71 -217 81 -102 9 -143 22 -190 63 -82 69 -90 104
-79 347 3 78 1 95 -18 131 -27 51 -72 91 -162 144 -77 44 -113 84 -136 149
-32 92 -17 162 63 285 56 85 67 120 60 201 -3 39 -14 69 -38 107 -18 29 -47
75 -64 102 -28 44 -31 58 -31 125 0 76 7 100 49 164 l19 28 -50 48 c-31 30
-72 57 -114 73 -52 21 -65 30 -67 50 -3 22 5 28 63 53 96 40 155 98 196 190
27 62 37 75 56 75 18 0 29 -14 58 -77 36 -78 115 -169 123 -143 3 7 -1 59 -8
115 -14 115 -9 162 25 220 49 84 115 119 245 130 183 16 244 68 299 254 19 62
31 82 74 125 87 87 168 97 323 41 162 -59 223 -45 342 75 98 98 142 122 233
122 87 0 152 -33 223 -115 66 -76 120 -108 193 -114 49 -4 73 1 157 31 119 43
178 46 252 12 72 -33 116 -90 148 -189 56 -177 108 -220 291 -241 137 -16 190
-42 242 -119 41 -61 48 -114 33 -237 -11 -81 -11 -108 -1 -142 22 -71 63 -120
137 -163 123 -71 176 -133 190 -224 11 -71 -4 -125 -58 -208 -66 -101 -79
-134 -79 -198 0 -62 15 -103 71 -185 49 -72 70 -127 70 -184 0 -101 -55 -183
-163 -244 -31 -18 -57 -36 -57 -41 0 -15 54 -89 80 -109 15 -11 48 -31 75 -44
39 -18 51 -29 53 -50 3 -23 -3 -29 -50 -51 -77 -35 -124 -80 -158 -153 -25
-52 -36 -64 -54 -64 -13 0 -31 10 -39 22 -14 20 -16 20 -16 5 -2 -64 -93 -158
-172 -178 l-48 -13 33 -60 c63 -117 140 -246 146 -246 12 0 158 153 215 225
195 244 353 571 424 875 36 155 52 307 52 495 0 355 -67 647 -221 960 -66 135
-148 275 -161 275 -4 0 -14 -20 -23 -45 -14 -36 -22 -45 -42 -45 -19 0 -30 12
-53 58 -35 69 -78 111 -149 146 -71 36 -69 59 11 99 31 16 57 33 57 37 0 16
-199 198 -294 269 -135 102 -239 162 -381 220 -349 143 -750 209 -1112 181z"/>
<path d="M1938 3869 c-25 -14 -24 -65 1 -79 11 -5 45 -10 75 -10 l56 0 0 -231
c0 -140 4 -238 10 -250 16 -30 68 -26 80 7 6 14 10 126 10 250 l0 224 58 0
c44 0 63 5 75 18 21 23 22 46 1 66 -13 13 -44 16 -182 16 -95 0 -175 -5 -184
-11z"/>
<path d="M2454 3861 c-23 -10 -54 -36 -70 -57 l-29 -37 -3 -174 c-3 -161 -2
-177 18 -218 33 -68 70 -89 162 -94 69 -3 83 0 122 23 74 43 86 81 86 272 0
170 -11 215 -58 257 -52 47 -158 60 -228 28z m166 -101 c18 -18 20 -33 20
-184 l0 -165 -26 -20 c-38 -30 -104 -28 -141 3 -28 24 -28 26 -31 152 -6 205
7 234 103 234 42 0 60 -5 75 -20z"/>
<path d="M2830 3860 c-19 -19 -20 -33 -20 -274 0 -141 4 -266 10 -280 7 -20
17 -26 39 -26 43 0 51 23 51 144 l0 106 77 0 c57 0 88 5 120 21 99 48 124 186
50 268 -42 45 -93 61 -204 61 -90 0 -106 -3 -123 -20z m249 -97 c34 -29 37
-74 8 -109 -23 -26 -32 -29 -101 -32 l-76 -4 0 81 0 81 74 0 c56 0 79 -4 95
-17z"/>
<path d="M1491 3161 c-20 -20 -21 -29 -21 -286 0 -330 -10 -309 154 -303 126
4 158 16 203 75 24 31 28 46 28 98 0 50 -5 69 -28 103 -27 41 -27 43 -10 69
28 43 24 130 -9 180 -37 57 -83 75 -199 81 -88 4 -98 3 -118 -17z m223 -102
c32 -25 35 -75 7 -110 -15 -19 -30 -24 -85 -27 l-66 -4 0 81 0 81 59 0 c44 0
65 -5 85 -21z m6 -242 c31 -15 54 -60 45 -87 -14 -45 -44 -60 -122 -60 l-73 0
0 80 0 80 63 0 c34 0 73 -6 87 -13z"/>
<path d="M1950 3168 l-25 -14 -3 -276 -2 -277 23 -16 c55 -36 77 5 77 146 l0
99 25 0 c22 0 38 -19 105 -122 44 -67 86 -126 95 -131 21 -11 65 17 65 41 0
10 -27 59 -60 110 -33 51 -60 95 -60 98 0 2 9 4 20 4 11 0 37 15 58 34 36 34
37 36 40 119 5 100 -13 148 -62 175 -41 22 -259 29 -296 10z m260 -107 c13
-25 13 -97 0 -122 -9 -17 -22 -19 -100 -19 l-90 0 0 80 0 80 90 0 c78 0 91 -2
100 -19z"/>
<path d="M2507 3171 c-50 -10 -87 -38 -114 -87 -22 -37 -23 -50 -23 -261 0
-215 1 -222 21 -237 14 -9 29 -12 43 -7 19 7 21 17 24 85 l3 76 99 0 100 0 0
-65 c0 -52 4 -69 20 -85 25 -25 35 -25 61 1 20 20 20 29 17 243 -3 222 -3 223
-30 263 -41 62 -130 92 -221 74z m127 -112 c25 -20 26 -24 26 -120 l0 -99
-100 0 -100 0 0 86 c0 121 21 153 101 154 32 0 54 -6 73 -21z"/>
<path d="M3290 3168 l-25 -14 -3 -274 c-3 -325 -8 -310 109 -310 112 0 166 16
214 64 52 53 65 100 65 243 0 165 -27 231 -112 274 -52 27 -210 37 -248 17z
m226 -122 l34 -34 0 -131 c0 -79 -5 -140 -12 -156 -17 -38 -58 -55 -128 -55
l-60 0 0 205 0 205 66 0 c62 0 68 -2 100 -34z"/>
<path d="M2832 3158 c-14 -14 -17 -544 -3 -567 5 -7 21 -13 36 -13 15 0 31 6
36 13 5 8 9 91 9 184 1 199 -11 202 121 -27 50 -87 99 -163 110 -169 22 -11
53 1 63 27 11 28 7 524 -4 545 -12 22 -64 26 -77 7 -4 -7 -10 -89 -13 -181
l-5 -168 -94 163 c-52 90 -101 171 -109 181 -17 20 -53 22 -70 5z"/>
<path d="M2935 1273 c-34 -9 -68 -35 -156 -119 -70 -67 -97 -86 -140 -98 -66
-20 -92 -20 -158 0 -43 12 -70 31 -140 98 -127 122 -116 121 -180 13 -175
-299 -189 -326 -173 -332 42 -16 206 -47 320 -60 149 -18 328 -19 473 -5 97
10 315 50 349 64 11 5 73 -93 254 -404 132 -226 248 -415 258 -421 23 -12 55
-3 67 19 5 9 32 101 60 203 l51 187 -230 398 -230 399 -63 -3 c-51 -3 -79 3
-160 32 -92 34 -149 42 -202 29z"/>
</g>
</svg>
