<svg viewBox="0 0 61 60" fill="none" xmlns="http://www.w3.org/2000/svg"><path d="M32.83 14.96h-5.7c-.31 0-.403.06-.31.36.217.602.372 1.233.558 1.834.155.511.805.902 1.424.902h10.995c.28 0 .403.06.372.36-.03.271 0 .572 0 .872 0 .241-.093.301-.31.271-3.344-.09-6.69-.06-10.034-.03-.62 0-1.27.09-1.859-.09-.99-.3-1.641-1.022-2.044-1.954-.31-.721-.371-1.503-.588-2.254-.341-1.203-.527-2.435-.867-3.638-.434-1.533-.899-3.066-1.208-4.629-.217-1.142-.62-2.254-.775-3.396a2.5 2.5 0 0 0-.588-1.293c-.248-.27-.589-.48-1.022-.48h-2.85c-.216 0-.34-.031-.31-.301V.562c0-.21.032-.3.28-.3.99 0 1.982-.061 2.942 0 1.393.12 2.663 1.171 2.85 2.584.092.661.34 1.263.464 1.924 0 .15.124.18.247.18h18.336c.495 0 .464 0 .34.451-.31 1.263-.681 2.525-.96 3.818-.279 1.172-.495 2.344-.836 3.517-.34 1.022-1.115 1.623-2.075 2.104-.279.15-.65.12-.991.12h-5.544zM9.137 59.473H4.49c-.34 0-.434-.09-.434-.421 0-1.864-.03-3.727 0-5.591 0-.42-.186-.631-.495-.631-.31 0-.496.24-.496.631v5.591c0 .3-.093.36-.402.39-.775.03-1.549-.03-2.323 0-.248 0-.341-.06-.341-.33v-7.154c0-.842.31-1.593.743-2.344.341-.602.837-1.053 1.394-1.473.186-.15.434-.18.62-.24.68-.241 1.362-.452 2.106-.452q3.995.045 7.99 0c.991 0 1.952.18 2.85.571.557.27 1.022.752 1.393 1.263.682.902.93 1.924.96 3.036.063 2.164 0 4.328.031 6.493v.33c.032.21-.061.27-.247.27-.775 0-1.549 0-2.323.03-.372 0-.527-.09-.527-.48V53.46c0-.18 0-.33-.124-.45a.5.5 0 0 0-.526-.151c-.217.06-.31.24-.31.45v5.682c0 .33-.03.45-.433.45-1.518.06-3.067 0-4.584.06zm20.949.008h-4.738c-.217 0-.28-.09-.28-.3 0-1.684 0-3.367.032-5.05 0-.301 0-.602-.062-.902-.031-.18-.031-.36-.279-.36s-.465.03-.558.3q-.092.225-.092.45v5.622c0 .24-.124.24-.28.24-.866 0-1.733-.03-2.6.03-.248 0-.248-.15-.248-.33.123-1.894.03-3.818.061-5.712 0-1.022 0-2.014.372-3.006.34-.811.805-1.533 1.549-2.044a4.94 4.94 0 0 1 2.88-.901h8.146c.99 0 1.95.18 2.849.57.557.241 1.022.692 1.363 1.203.867 1.202 1.053 2.585 1.084 3.998.03 1.954 0 3.878 0 5.831 0 .24-.062.361-.34.361-.806 0-1.611 0-2.417.06-.279 0-.371-.09-.371-.36 0-1.714 0-3.427.03-5.14 0-.361.094-.752-.31-1.023-.309-.21-.557-.15-.68.21a1.7 1.7 0 0 0-.062.422v5.59c0 .271-.124.301-.341.301h-4.708zM51.76 47.518h4.583c.867 0 1.673.27 2.416.66.712.362 1.208.993 1.61 1.684.713 1.263.589 2.585.62 3.938.031 1.653 0 3.306 0 4.96 0 .721 0 .721-.743.721h-1.983c-.278 0-.34-.06-.34-.33v-5.682c0-.33-.217-.631-.465-.661-.247 0-.557.3-.588.601v5.681c0 .27-.093.331-.34.331-3.13 0-6.257.03-9.385 0-.31 0-.248-.18-.248-.36V53.59c0-.15 0-.301-.062-.451-.124-.24-.279-.361-.558-.301-.278.06-.402.21-.402.511v5.621c0 .36 0 .511-.496.481-.743-.06-1.517-.03-2.292-.03-.155 0-.278 0-.278-.21v-6.373c0-.751 0-1.473.216-2.194.248-.692.62-1.323 1.146-1.834.527-.51 1.24-.842 1.952-1.082.805-.27 1.61-.18 2.384-.21h3.252m.084-.725c-2.354.09-4.088-1.894-4.057-3.968 0-2.014 1.703-3.878 4.026-3.878 2.292 0 4.12 1.834 4.088 4.028 0 2.044-1.734 3.878-4.057 3.818m-21.813-.006c-2.137.09-3.964-1.773-3.995-3.938 0-2.164 1.92-3.997 4.058-3.937 2.075.03 3.995 1.773 3.964 4.028 0 2.164-1.858 3.877-4.058 3.817zm11.057-.001c-2.137.06-4.058-1.804-3.996-4.028.031-2.044 1.89-3.848 4.058-3.848 2.137 0 4.088 1.834 3.995 4.148-.062 1.924-1.765 3.788-4.057 3.728m-21.228.007a3.907 3.907 0 0 1-3.965-3.908c0-2.194 1.859-3.967 4.058-3.937 1.951 0 4.057 1.773 3.995 4.118-.062 2.014-1.982 3.847-4.088 3.757zm-10.764-.006c-2.292 0-3.872-1.683-3.965-4.058-.062-1.984 2.044-3.878 4.12-3.817 2.013.06 3.933 1.803 3.902 4.088-.031 2.044-1.827 3.877-4.057 3.787m22.675-13.79c0-2.044 1.827-3.878 3.933-3.878 2.354 0 4.12 1.804 4.15 3.938 0 2.074-1.89 3.877-4.057 3.908-2.137 0-4.026-1.834-4.026-3.968m-6.454 3.968c-1.89 0-3.996-1.744-3.996-3.998 0-2.044 1.982-3.848 3.996-3.848 2.385 0 4.119 1.864 4.088 3.968 0 2.134-1.827 3.847-4.088 3.878m-6.938-3.848c.124 2.135-2.075 3.878-4.027 3.848-2.075 0-3.995-1.713-3.964-4.058 0-2.014 1.89-3.757 3.903-3.787 2.23-.03 4.212 1.833 4.088 3.997m31.754-.034c.185 2.104-2.106 3.908-3.934 3.878-2.168 0-4.026-1.713-4.026-3.998 0-2.164 1.796-3.818 3.933-3.878 2.075-.06 4.243 1.864 4.027 3.968zm-9.949-10.157c-.062 1.262-.96 2.164-2.23 2.194-1.208 0-2.292-.932-2.26-2.284 0-1.082 1.052-2.104 2.105-2.134 1.456-.06 2.416 1.082 2.416 2.224zm-10.678-2.227c1.022-.09 2.292.932 2.261 2.224-.03 1.263-1.022 2.195-2.323 2.165-1.239 0-2.106-.842-2.199-2.195-.062-1.262 1.24-2.314 2.261-2.194" fill="#6c757d"></path></svg>