<svg viewBox="0 0 70 50" fill="none" xmlns="http://www.w3.org/2000/svg"><path d="M52.482 21.984c-.533.595-.781 1.19-.746 2.1.142 2.239.036 4.478.036 6.753H36.793v-7.628c.036-2.38-1.384-3.499-3.55-3.464-5.82.035-11.641 0-17.427 0H15V3.09c0-.734 0-1.364.603-1.819.284-.245.675-.385 1.03-.49.284-.07.603 0 .887 0h41.03c.569 0 1.243 0 1.74.245.32.175.497.805.568 1.225.107.734.142 1.504.142 2.239v16.97h-6.673c-.532 0-1.1.28-1.633.42-.035 0-.106.07-.142.104z" fill="#6c757d"></path><path d="M3.705 21.201h29.146c1.421 0 2.149.456 2.149 2.034v21.949c0 .07 0 .14-.035.21H2.007V23.27c0-.631-.104-1.227.485-1.683.035 0 .104-.07.139-.105.139-.106.277-.21.45-.351.07 0 .14 0 .208.035.139 0 .278 0 .416-.035zM53 27.926h17v16.499H53zM0 46.365h38c-.145.8-.18 1.568-.434 2.272-.144.448-.722.64-1.3.64H1.662c-1.084 0-1.626-.48-1.662-1.408zm52-13.588v4.853H37v-4.853zm1 13.588h17c-.07.728-.07 1.426-.177 2.123-.07.546-.53.789-1.166.789h-14.49c-.778 0-1.167-.364-1.167-1.031zm8.447 1.88h2.014c.39 0 .672-.151.637-.454 0-.182-.354-.455-.566-.455-1.378-.03-2.756 0-4.135 0-.353 0-.742.121-.671.455.035.182.424.424.706.455.672.06 1.343 0 2.015 0m-8.439-22.263c0-.637.035-1.244 0-1.85-.071-.637.354-.94 1.097-1.062h14.196c1.345 0 1.699.334 1.699 1.486v1.426zm8.496-.97h2.018c.39 0 .637-.122.637-.486 0-.394-.283-.424-.637-.424h-4c-.355 0-.673 0-.673.454 0 .425.318.486.672.486h1.983zm4.106-1.153c-.318.333-.53.485-.602.667-.106.364.178.425.567.425.354 0 .743 0 .637-.425-.035-.182-.283-.334-.602-.667" fill="#6c757d"></path><path d="M61.042 47.323c-.748 0-1.496.031-2.245 0-.276 0-.748-.288-.788-.48-.078-.35.355-.478.749-.478h4.608c.237 0 .591.287.63.479.04.287-.275.478-.708.478z" fill="#6c757d"></path></svg>