<?xml version="1.0" encoding="iso-8859-1"?>
<!-- Uploaded to: SVG Repo, www.svgrepo.com, Generator: SVG Repo Mixer Tools -->
<svg fill="#25dc3c" height="800px" width="800px" version="1.1" id="Layer_1" xmlns="http://www.w3.org/2000/svg" xmlns:xlink="http://www.w3.org/1999/xlink" 
	 viewBox="0 0 512 512" xml:space="preserve">
<g>
	<g>
		<path d="M174.61,55.694L104.37,2.034c-4.345-3.32-10.557-2.486-13.877,1.857c-3.318,4.345-2.486,10.558,1.858,13.877l0.128,0.098
			C78.585,38.478,69.454,70.763,75.607,90.181c0.868-0.444,1.767-0.847,2.694-1.21c14.303-5.573,30.373,0.932,36.868,14.642
			c17.024-5.683,35.473-18.576,47.294-32.283l0.128,0.098c4.344,3.319,10.556,2.488,13.877-1.857
			C179.786,65.227,178.955,59.013,174.61,55.694z"/>
	</g>
</g>
<g>
	<g>
		<path d="M61.745,126.676c-1.432-3.674-2.063-7.462-1.985-11.172l-8.641-6.602c-3.286-2.51-7.984-1.882-10.494,1.404
			l-11.379,14.895c-2.51,3.286-1.881,7.984,1.404,10.494l34.387,26.269c3.121,2.384,7.513,1.932,10.097-0.936L61.745,126.676z"/>
	</g>
</g>
<g>
	<g>
		<path d="M210.796,90.515c-24.363,0-44.113,19.75-44.113,44.113c-0.001,24.544,19.966,44.113,44.113,44.113
			c24.245,0,44.113-19.659,44.113-44.113C254.909,110.265,235.158,90.515,210.796,90.515z"/>
	</g>
</g>
<g>
	<g>
		<path d="M290.363,227.626c-0.099-20.49-16.851-37.159-37.341-37.159c-8.48,0-65.612,0-74.241,0l-52.427-21.656l-22.776-58.439
			c-3.165-8.12-12.313-12.139-20.434-8.973c-8.121,3.166-12.138,12.313-8.973,20.434l24.798,63.628
			c1.836,4.709,5.516,8.465,10.187,10.394l59.456,24.56c0,22.513,0.007,272.648,0.007,272.648c0,10.458,8.478,18.936,18.936,18.936
			c10.458,0,18.936-8.478,18.936-18.936V341.699h8.178v151.365c0,10.458,8.478,18.936,18.936,18.936
			c10.458,0,18.936-8.478,18.936-18.936c0-24.452-0.344-266.198-0.344-265.182c0-1.805,1.449-3.276,3.254-3.303
			c1.805-0.027,3.297,1.4,3.35,3.205l0.582,115.935c0.043,8.688,7.1,15.701,15.778,15.701c0.027,0,0.055,0,0.081,0
			c8.716-0.043,15.745-7.145,15.701-15.859L290.363,227.626z"/>
	</g>
</g>
<g>
	<g>
		<circle cx="404.136" cy="134.63" r="44.113"/>
	</g>
</g>
<g>
	<g>
		<path d="M483.711,227.625c-0.103-20.489-16.856-37.158-37.346-37.158c-3.205,0-61.979,0-85.556,0
			c-20.491,0-37.242,16.67-37.344,37.158l-0.583,115.935c-0.043,8.715,6.986,15.816,15.701,15.859c0.027,0,0.055,0,0.081,0
			c8.678,0,15.734-7.013,15.778-15.701l0.583-115.936c0.02-1.908,1.577-3.441,3.484-3.431s3.447,1.559,3.447,3.466l0.008,265.245
			c0,10.458,8.478,18.936,18.936,18.936s18.936-8.478,18.936-18.936V341.699h8.178v151.365c0,10.458,8.478,18.936,18.936,18.936
			c10.458,0,18.936-8.478,18.936-18.936l-0.336-265.303c-0.002-1.821,1.472-3.3,3.295-3.303c1.823-0.002,3.3,1.473,3.303,3.295
			c0,0.01,0,0.021,0,0.032l0.582,115.935c0.043,8.688,7.1,15.701,15.778,15.701c0.027,0,0.055,0,0.081,0
			c8.716-0.043,15.745-7.145,15.701-15.859L483.711,227.625z"/>
	</g>
</g>
</svg>