<?xml version="1.0" standalone="no"?>
<!DOCTYPE svg PUBLIC "-//W3C//DTD SVG 20010904//EN"
 "http://www.w3.org/TR/2001/REC-SVG-20010904/DTD/svg10.dtd">
<svg version="1.0" xmlns="http://www.w3.org/2000/svg"
 width="512.000000pt" height="512.000000pt" viewBox="0 0 512.000000 512.000000"
 preserveAspectRatio="xMidYMid meet">

<g transform="translate(0.000000,512.000000) scale(0.100000,-0.100000)"
fill="#6c757d" stroke="none">
<path d="M2003 4996 c-324 -62 -586 -260 -728 -551 -69 -141 -96 -246 -102
-400 -12 -287 84 -539 282 -740 138 -141 283 -227 465 -277 74 -20 107 -23
260 -22 200 0 268 14 414 82 119 56 199 113 296 211 141 142 230 308 272 511
37 178 14 411 -57 581 -62 147 -176 298 -298 395 -99 79 -269 164 -387 194
-109 28 -314 35 -417 16z"/>
<path d="M2040 2889 c-63 -4 -142 -12 -174 -18 -33 -6 -61 -11 -64 -11 -4 0
346 -272 364 -283 7 -4 93 56 198 137 137 106 182 146 169 150 -73 21 -339 35
-493 25z"/>
<path d="M1527 2788 c-32 -11 -57 -24 -55 -28 9 -23 334 -599 338 -599 8 0
242 283 242 292 -1 11 -444 357 -457 356 -5 0 -36 -10 -68 -21z"/>
<path d="M2522 2635 c-123 -95 -224 -176 -225 -179 -2 -7 235 -295 243 -295 4
-1 330 577 338 599 2 7 -111 51 -127 50 -3 -1 -106 -79 -229 -175z"/>
<path d="M1205 2642 c-302 -175 -513 -371 -698 -652 -128 -194 -239 -462 -282
-683 -20 -100 -14 -139 25 -169 24 -17 62 -18 972 -16 l947 3 -159 175 c-95
104 -157 181 -155 190 14 47 124 604 121 607 -2 2 -27 -25 -55 -61 -56 -71
-119 -110 -155 -97 -14 6 -86 123 -231 381 -116 205 -215 375 -220 377 -6 2
-55 -23 -110 -55z"/>
<path d="M3012 2668 c-11 -18 -102 -179 -202 -358 -100 -179 -191 -335 -202
-347 -24 -25 -73 -30 -98 -10 -8 7 -43 45 -78 85 -34 40 -62 69 -62 64 0 -4
29 -147 64 -317 l64 -309 -113 -126 c-62 -69 -134 -149 -160 -177 l-47 -53
351 0 351 0 0 38 c0 22 5 76 11 121 l11 83 -51 105 c-63 126 -76 189 -61 275
17 92 49 146 148 244 l90 89 21 94 c12 52 30 113 40 137 37 84 139 171 227
196 l37 10 -74 49 c-71 48 -230 139 -242 139 -3 0 -14 -15 -25 -32z"/>
<path d="M3852 2525 c-18 -8 -70 -41 -115 -74 -45 -33 -95 -65 -111 -71 -16
-6 -83 -15 -148 -20 -100 -7 -126 -13 -163 -35 -58 -34 -88 -87 -115 -207 -25
-114 -48 -151 -143 -238 -130 -120 -141 -186 -56 -361 59 -123 61 -133 45
-305 -15 -156 17 -207 172 -274 127 -56 151 -75 221 -178 68 -100 92 -125 143
-147 54 -22 96 -19 210 15 55 17 115 30 133 30 18 0 81 -14 141 -31 186 -54
234 -36 345 126 76 113 92 126 219 180 87 37 140 78 167 128 17 34 19 85 8
232 l-8 110 53 107 c90 184 83 225 -60 373 -89 92 -100 107 -119 169 -12 37
-21 74 -21 80 0 35 -35 120 -60 150 -47 53 -90 68 -221 77 -133 9 -146 14
-266 100 -44 32 -93 63 -108 69 -37 14 -104 12 -143 -5z m243 -465 c233 -81
375 -313 344 -562 -17 -145 -118 -295 -251 -375 -59 -36 -188 -73 -253 -73
-286 0 -525 237 -525 520 0 236 166 446 398 505 76 19 208 13 287 -15z"/>
<path d="M3237 718 c-8 -18 -51 -111 -96 -206 -45 -95 -81 -177 -81 -183 0
-13 20 -12 169 13 78 12 136 18 138 12 18 -44 143 -239 153 -239 11 0 159 292
160 316 0 3 -27 9 -59 12 -119 10 -217 76 -292 195 -23 37 -50 77 -60 90 l-18
24 -14 -34z"/>
<path d="M4537 657 c-94 -143 -177 -201 -314 -216 l-52 -6 76 -162 c41 -90 81
-163 87 -163 6 0 43 55 81 121 39 67 76 124 83 126 7 3 65 -4 130 -16 139 -25
162 -26 162 -7 0 20 -181 406 -191 406 -4 0 -32 -37 -62 -83z"/>
</g>
</svg>
