<svg width="52" height="57" viewBox="0 0 52 57" fill="none" xmlns="http://www.w3.org/2000/svg"><path d="M40.856 26.878c.49-.745 1.178-1.044 1.784-1.443.407-.27.813-.528.86-1.084.057-.648-.205-1.004-.855-1.072-.226-.024-.46.021-.69.05-.934.113-1.848.137-2.698-.37-.233-.138-.496-.23-.75-.324-1.118-.409-1.831.113-1.767 1.302.015.287.07.58.163.851.22.653.274 1.282.028 1.951-.175.478.02.939.296 1.359.285.438.63.839.826 1.332.292.73.048 1.263-.7 1.497-.402.124-.804.239-1.232.244-.963.01-1.754.356-2.341 1.145a4.95 4.95 0 0 1-1.89 1.545c-1.69.778-2.452 2.153-2.723 3.877-.339 2.165-1.535 3.604-3.633 4.309-.358.12-.702.285-1.06.405-2.181.73-3.143 2.348-3.294 4.513-.22 3.142-1.11 6.02-3.235 8.439-.18.205-.373.4-.58.576-1.215 1.03-2.389.932-3.397-.293-.988-1.203-1.52-2.635-2.056-4.066-.694-1.856-1.202-3.77-1.729-5.674-.15-.544-.47-.926-.83-1.3-.47-.486-.66-1.022-.585-1.704.212-1.925-.163-3.76-.879-5.557-.53-1.327-.812-2.714-.39-4.148.158-.534.518-.953.785-1.424.217-.384.499-.84.081-1.195-.415-.354-.905-.194-1.334.122-.413.303-.716.708-1.074 1.063-.981.973-1.913.997-2.934.066-.479-.435-.514-.992-.098-1.5.626-.76.476-1.296-.45-1.672-.565-.228-1.133-.454-1.676-.725-.518-.258-.912-.637-.77-1.29.127-.585.818-1.122 1.426-1.168.432-.03.83.097 1.237.2.865.214 1.316-.132 1.38-1.027.052-.692-.17-1.316-.436-1.933-.33-.768-.768-1.487-1.015-2.29-.353-1.142.289-1.883 1.49-1.776.926.083 1.694-.28 2.285-.979.297-.35.565-.73.82-1.114a12.8 12.8 0 0 1 1.926-2.315c1.176-1.103 1.846-2.51 2.316-4.029.171-.552.02-1.006-.452-1.234-1.247-.605-1.41-1.636-1.196-2.803.206-1.125-.11-2.058-.867-2.88-.142-.154-.288-.306-.423-.468-.675-.806-.579-1.19.43-1.54.832-.29 1.679-.532 2.52-.795.941-.295 1.798-.109 2.55.495.606.487 1.17 1.025 1.76 1.53.786.67 1.656.917 2.7.65.81-.206 1.64-.375 2.495-.31.46.036.821.186.999.628q.267.663-.174 1.238c-.302.395-.742.614-1.135.892-.29.206-.61.38-.882.607-.459.383-.67.843-.375 1.44a2.6 2.6 0 0 1 .253 1.276c-.017.447-.217.749-.598.957-.93.509-1.007 1.346-.187 2.04.656.554 1.468.813 2.257 1.093.334.117.598.281.84.523.928.926 1.755 1.935 2.38 3.08 1.006 1.84 2.624 2.473 4.624 2.458.981-.007 1.707-.553 2.428-1.094 1.636-1.225 3.505-1.678 5.513-1.678.705 0 1.061.296 1.223.945.39 1.574 1.048 1.94 2.66 1.494 1.08-.3 1.971-.926 2.862-1.561 1.265-.9 2.448-1.927 3.951-2.452 1.26-.44 2.448-.275 3.569.407.967.588 1.09 1.57.293 2.366-.569.568-1.255.996-1.946 1.395-1.273.735-1.558 1.831-1.303 3.163.112.581.09 1.169.061 1.751-.017.364-.17.739-.482.916-1.18.67-.971 1.73-.85 2.77.075.661.186 1.32.275 1.978.058.432-.159.57-.559.486-1.098-.233-2.025-.722-2.544-1.764-.202-.403-.498-.681-.92-.803-.74-.215-1.443-.576-2.35-.57z" fill="#6c757d"></path></svg>