<?xml version="1.0" standalone="no"?>
<!DOCTYPE svg PUBLIC "-//W3C//DTD SVG 20010904//EN"
 "http://www.w3.org/TR/2001/REC-SVG-20010904/DTD/svg10.dtd">
<svg version="1.0" xmlns="http://www.w3.org/2000/svg"
 width="512.000000pt" height="512.000000pt" viewBox="0 0 512.000000 512.000000"
 preserveAspectRatio="xMidYMid meet">

<g transform="translate(0.000000,512.000000) scale(0.100000,-0.100000)"
fill="#6c757d" stroke="none">
<path d="M1089 4139 c-27 -27 -21 -66 12 -92 24 -17 30 -18 55 -6 40 19 47 79
12 103 -30 22 -54 20 -79 -5z"/>
<path d="M2322 4144 c-36 -25 -27 -89 15 -105 62 -23 110 54 63 101 -24 24
-48 25 -78 4z"/>
<path d="M2945 4135 c-14 -13 -25 -31 -25 -38 0 -27 35 -59 65 -59 30 0 65 32
65 59 0 19 -45 63 -65 63 -9 0 -27 -11 -40 -25z"/>
<path d="M1849 4092 c-47 -39 -16 -122 47 -122 32 0 64 34 64 68 0 33 -8 45
-37 61 -30 16 -47 14 -74 -7z"/>
<path d="M3426 4089 c-48 -38 -20 -119 41 -119 30 0 73 42 73 70 0 26 -43 70
-68 70 -11 0 -31 -9 -46 -21z"/>
<path d="M1057 4002 c-35 -38 -43 -232 -11 -232 8 0 14 -6 15 -12 3 -75 18
-228 23 -237 4 -6 27 -11 51 -11 53 0 52 -3 61 147 3 62 10 110 14 108 4 -3
13 2 20 10 18 21 8 171 -14 213 -16 31 -19 32 -80 32 -48 0 -67 -4 -79 -18z"/>
<path d="M2273 3983 c-21 -51 -30 -188 -13 -208 7 -8 16 -13 20 -10 7 4 20
-114 20 -190 0 -51 13 -65 62 -65 46 0 58 19 58 88 0 77 12 172 21 166 32 -20
36 146 5 221 l-15 35 -71 0 -71 0 -16 -37z"/>
<path d="M2903 3993 c-13 -19 -18 -53 -21 -123 -4 -92 -3 -97 17 -103 19 -5
21 -13 22 -74 1 -96 12 -176 24 -180 7 -2 15 27 21 70 13 85 40 148 67 155 15
4 17 10 12 31 -19 75 -17 107 9 138 30 35 33 59 10 91 -13 19 -24 22 -79 22
-59 0 -66 -2 -82 -27z"/>
<path d="M3866 3979 c-59 -47 -15 -149 59 -135 65 13 89 96 39 135 -15 12 -37
21 -49 21 -12 0 -34 -9 -49 -21z"/>
<path d="M4675 3975 c-14 -13 -25 -36 -25 -50 0 -30 49 -85 75 -85 21 0 57 19
72 39 35 45 -7 121 -67 121 -19 0 -40 -9 -55 -25z"/>
<path d="M1806 3927 c-19 -28 -36 -113 -36 -178 0 -56 7 -79 25 -79 18 0 25
-23 26 -88 0 -73 13 -189 21 -198 6 -5 78 -13 78 -8 0 1 -7 15 -15 30 -31 60
-8 154 46 192 11 8 19 25 19 43 0 23 4 29 21 29 20 0 21 4 17 108 -2 69 -8
118 -18 137 -15 29 -18 30 -92 33 -71 3 -78 1 -92 -21z"/>
<path d="M3383 3938 c-22 -28 -33 -85 -33 -174 0 -87 1 -94 20 -94 18 0 20 -7
20 -55 0 -60 7 -66 36 -34 24 27 67 49 94 49 13 0 24 8 27 19 3 11 14 22 25
25 20 5 21 10 15 101 -3 62 -12 108 -24 133 l-18 37 -76 3 c-53 2 -79 -1 -86
-10z"/>
<path d="M1489 3901 c-20 -20 -29 -39 -29 -61 0 -43 47 -90 90 -90 43 0 90 47
90 90 0 43 -47 90 -90 90 -22 0 -41 -9 -61 -29z"/>
<path d="M3083 3915 c-49 -34 -45 -126 7 -152 78 -39 153 25 126 107 -17 54
-86 78 -133 45z"/>
<path d="M3814 3796 c-24 -38 -33 -91 -34 -194 0 -89 1 -93 25 -102 22 -9 24
-15 27 -87 l3 -78 48 -7 c27 -3 60 -14 73 -23 14 -9 28 -14 31 -11 3 3 8 51
11 105 4 92 6 100 26 103 20 3 21 8 21 123 0 103 -3 125 -21 155 l-20 35 -87
3 c-82 3 -87 2 -103 -22z"/>
<path d="M4626 3792 c-28 -54 -47 -231 -30 -276 3 -9 14 -16 24 -16 19 0 18 5
36 -226 6 -87 11 -101 34 -104 48 -7 50 -4 50 82 0 174 44 308 102 308 23 0
23 6 -2 37 -24 31 -27 109 -5 141 14 19 14 24 0 52 -16 30 -16 30 -105 30 -88
0 -90 -1 -104 -28z"/>
<path d="M109 3741 c-64 -65 -20 -171 71 -171 91 0 135 106 71 171 -23 23 -38
29 -71 29 -33 0 -48 -6 -71 -29z"/>
<path d="M619 3741 c-64 -65 -20 -171 71 -171 33 0 48 6 71 29 64 65 20 171
-71 171 -33 0 -48 -6 -71 -29z"/>
<path d="M2594 3759 c-60 -30 -67 -117 -13 -163 42 -36 89 -35 131 3 87 78
-11 211 -118 160z"/>
<path d="M4869 3741 c-23 -23 -29 -38 -29 -71 0 -33 6 -48 29 -71 65 -64 171
-20 171 71 0 33 -6 48 -29 71 -23 23 -38 29 -71 29 -33 0 -48 -6 -71 -29z"/>
<path d="M1454 3722 c-21 -13 -43 -69 -53 -133 -15 -88 -14 -192 2 -212 11
-16 16 -15 61 8 63 32 99 32 165 -1 71 -36 76 -29 75 104 -2 118 -14 176 -45
216 -19 25 -25 26 -107 26 -48 0 -92 -4 -98 -8z"/>
<path d="M3038 3718 c-35 -26 -51 -89 -56 -216 -2 -68 0 -128 5 -133 5 -5 28
2 57 16 63 32 111 32 171 -1 75 -39 78 -35 73 114 -3 110 -7 134 -28 177 l-25
50 -90 3 c-62 2 -96 -1 -107 -10z"/>
<path d="M4241 3664 c-55 -46 -59 -124 -10 -173 95 -96 246 19 184 139 -32 62
-121 79 -174 34z"/>
<path d="M2020 3599 c-38 -8 -86 -55 -96 -94 -17 -69 32 -148 102 -161 49 -9
82 2 121 41 28 28 33 40 33 79 0 98 -68 155 -160 135z"/>
<path d="M3512 3599 c-56 -12 -102 -71 -102 -131 0 -62 70 -128 135 -128 37 0
88 30 111 65 23 35 22 103 -1 138 -29 45 -88 68 -143 56z"/>
<path d="M56 3521 c-30 -33 -48 -112 -53 -237 -6 -129 2 -164 37 -164 11 0 20
-1 21 -2 0 -2 6 -90 14 -196 15 -228 16 -228 104 -229 89 -1 89 -1 104 227 12
193 12 194 36 200 35 8 43 47 37 170 -5 108 -22 182 -50 225 -16 24 -21 25
-125 25 -93 0 -110 -3 -125 -19z"/>
<path d="M572 3528 c-38 -49 -62 -160 -62 -293 0 -84 11 -115 40 -115 25 0 26
-7 39 -219 8 -138 14 -178 27 -192 28 -31 39 -22 52 39 17 83 58 161 99 184
27 16 33 26 33 52 0 18 -8 48 -17 67 -26 52 -22 126 9 181 15 25 39 53 53 62
24 16 26 22 20 59 -12 86 -27 137 -47 162 -19 24 -24 25 -128 25 -74 0 -111
-4 -118 -12z"/>
<path d="M2516 3515 c-30 -45 -46 -135 -46 -255 0 -119 6 -140 41 -140 13 0
17 -15 23 -87 6 -85 7 -87 47 -121 53 -46 82 -104 83 -169 0 -44 3 -53 18 -53
10 0 26 8 36 18 16 16 20 42 26 143 13 236 17 269 35 269 34 0 41 22 41 132 0
144 -25 255 -64 280 -6 4 -59 8 -117 8 -103 0 -107 -1 -123 -25z"/>
<path d="M4814 3515 c-28 -43 -45 -117 -50 -225 -6 -123 2 -162 37 -170 24 -6
24 -7 36 -200 15 -228 15 -228 104 -227 88 1 89 1 104 229 8 106 14 194 14
196 1 1 10 2 21 2 35 0 43 35 37 164 -5 125 -23 204 -53 237 -15 16 -32 19
-125 19 -104 0 -109 -1 -125 -25z"/>
<path d="M4160 3388 c-33 -54 -50 -156 -50 -297 0 -121 1 -131 21 -145 12 -8
28 -12 35 -9 10 4 14 -4 14 -28 1 -19 7 -123 14 -232 17 -240 14 -235 122
-235 99 -1 100 0 113 203 18 269 22 297 36 291 7 -2 23 3 35 11 22 16 22 19
17 167 -5 159 -20 232 -58 280 -20 26 -22 26 -150 26 l-129 0 -20 -32z"/>
<path d="M1480 3362 c-103 -51 -108 -201 -8 -262 82 -50 190 -3 216 93 33 121
-95 226 -208 169z"/>
<path d="M3056 3358 c-125 -73 -87 -259 56 -275 123 -14 212 130 140 226 -51
68 -130 88 -196 49z"/>
<path d="M1914 3298 c-23 -11 -56 -76 -75 -148 -7 -25 -13 -115 -13 -203 -1
-147 0 -160 19 -173 11 -8 27 -13 36 -11 21 6 23 -16 40 -301 15 -250 16 -252
115 -250 56 2 65 5 69 23 19 97 31 139 55 195 24 56 29 84 35 203 6 112 10
137 21 133 9 -3 14 1 14 13 0 10 11 39 25 65 21 39 25 61 25 129 0 151 -36
289 -84 322 -24 18 -248 20 -282 3z"/>
<path d="M3397 3290 c-31 -24 -62 -104 -72 -181 -6 -50 -4 -61 19 -95 14 -22
35 -75 47 -119 19 -70 22 -112 25 -346 2 -147 8 -278 14 -293 13 -34 49 -50
95 -42 32 6 35 9 23 23 -10 12 -13 63 -12 212 0 222 14 305 65 409 35 71 65
92 131 92 l43 0 -37 25 c-78 53 -104 192 -48 267 l23 31 -23 19 c-19 15 -41
18 -145 18 -108 0 -125 -2 -148 -20z"/>
<path d="M885 3282 c-103 -66 -122 -187 -41 -268 80 -80 210 -61 267 39 17 31
20 50 17 93 -8 92 -63 145 -155 151 -45 3 -65 0 -88 -15z"/>
<path d="M3790 3289 c-91 -36 -128 -152 -78 -241 54 -96 185 -113 264 -34 81
81 57 217 -48 272 -31 16 -101 17 -138 3z"/>
<path d="M1373 3018 c-60 -66 -85 -183 -86 -401 0 -174 4 -186 59 -190 l29 -2
17 -250 c9 -138 17 -267 17 -288 1 -26 9 -45 25 -62 21 -21 32 -23 107 -23 89
0 112 7 128 36 5 10 17 137 26 283 9 145 18 274 20 285 4 15 12 22 31 22 54 0
59 17 57 195 -1 174 -16 275 -52 345 -37 73 -35 72 -205 72 -145 0 -153 -1
-173 -22z"/>
<path d="M2946 3009 c-51 -60 -76 -192 -76 -400 0 -163 6 -183 59 -181 26 1
31 -3 31 -21 0 -45 31 -523 36 -545 10 -48 35 -60 129 -60 137 1 132 -8 150
273 23 353 23 358 46 352 10 -3 29 3 42 13 21 18 22 24 21 192 -1 220 -25 329
-85 389 -17 17 -34 19 -173 19 l-154 0 -26 -31z"/>
<path d="M2387 2916 c-50 -18 -85 -51 -108 -101 -23 -49 -24 -94 -4 -143 32
-75 90 -115 170 -115 117 0 198 95 182 214 -14 108 -138 183 -240 145z"/>
<path d="M770 2900 c-28 -28 -55 -85 -75 -160 -12 -47 -18 -121 -22 -267 l-5
-201 26 -27 c20 -20 33 -25 50 -21 28 7 25 26 52 -389 10 -159 21 -259 30
-276 19 -38 67 -56 110 -40 25 9 39 9 54 1 29 -15 73 -4 101 26 22 24 24 38
45 352 12 180 23 328 23 330 1 1 11 0 24 -3 15 -4 32 1 48 14 24 19 24 20 24
203 0 247 -29 380 -98 456 -20 21 -27 22 -194 22 -158 0 -175 -2 -193 -20z"/>
<path d="M3656 2889 c-66 -78 -90 -199 -91 -442 0 -188 0 -189 24 -208 16 -13
33 -18 48 -14 13 3 23 4 24 3 0 -2 11 -150 23 -330 21 -314 23 -329 45 -352
28 -30 72 -41 101 -26 15 8 29 8 54 -1 43 -16 91 2 110 40 9 17 20 116 30 276
26 411 24 396 52 389 16 -4 30 1 48 20 26 25 26 27 26 183 0 234 -34 401 -95
467 l-24 26 -175 0 -174 0 -26 -31z"/>
<path d="M2250 2497 c-73 -37 -131 -271 -129 -527 1 -187 19 -238 81 -226 23
4 29 1 32 -17 3 -12 14 -173 26 -357 22 -364 23 -369 85 -399 22 -10 36 -11
65 -2 27 8 46 8 68 0 23 -8 41 -8 66 1 64 21 66 27 92 419 13 196 24 357 24
358 0 1 13 0 28 -3 19 -4 35 1 52 14 24 20 25 25 28 172 6 266 -32 470 -102
545 l-33 35 -179 0 c-123 0 -187 -4 -204 -13z"/>
</g>
</svg>
