<svg width="64" height="62" viewBox="0 0 64 62" fill="none" xmlns="http://www.w3.org/2000/svg"><path d="M63.155 30.402c-1.043-1.07-2.791-1.07-3.968 0-.505.454-.942.907-1.413 1.361-.74.713-.74.713-1.446 0l-.303-.292c-2.858-2.787-6.355-3.954-10.357-3.565-2.69.26-5.01 1.329-7.029 3.08-.235.194-.403.388-.807.259-1.748-.681-3.564-1.07-5.448-1.102-.47 0-.672-.163-.639-.649s0-1.005 0-1.49c0-.325.101-.552.37-.779 1.211-1.134 2.119-2.463 2.657-4.019.236-.68.572-1.102 1.278-1.426 1.883-.908 2.724-2.885 2.32-5.121-.235-1.297-1.11-2.237-2.387-2.464-.471-.065-.505-.26-.505-.616 0-1.523.034-3.046 0-4.57-.067-2.204-1.85-5.218-3.43-6.807-.134-.13-.235-.227-.37-.291-.504-.357-1.042-.616-1.513-.746a1.2 1.2 0 0 0-.303-.13 5 5 0 0 0-.672-.13C27.676.647 24.784.647 23.305.647c-1.211 0-2.422 0-3.599.227-3.665.713-6.658 3.987-6.826 7.618-.068 1.393-.101 2.82-.034 4.213.034.843-.034 1.362-1.076 1.653-1.311.357-1.85 1.459-1.883 2.82-.101 2.334.74 4.02 3.06 4.895.202.065.27.194.336.389.471 1.685 1.312 3.176 2.59 4.408.538.518.74 1.07.672 1.75-.033.486.168 1.07-.067 1.426-.235.357-.908.195-1.379.292-4.27.778-7.835 2.69-10.694 5.835-.134.162-.235.291-.302.453l-.101.195c-.404.81-2.253 4.894-2.556 5.737C.639 44.826 0 47.127 0 49.526c0 1.264.47 1.718 1.749 1.718h35.478c.437 0 .706.13.942.518 1.916 3.339 4.338 6.386 7.062 9.14 1.177 1.168 2.656 1.2 3.833 0a65 65 0 0 0 2.522-2.754c3.128-3.696 5.75-7.715 7.197-12.317.74-2.399 1.177-4.862.807-7.39-.067-.552.067-.843.437-1.168a132 132 0 0 0 3.094-2.982c1.143-1.134 1.177-2.722.067-3.824zm-33.26-.94c-.066.81.068 1.588-.167 2.398-.471 1.654-2.018 2.82-3.8 2.853H23.91c-.706-.065-1.58.097-2.455-.097-1.85-.422-3.094-1.978-3.094-3.793v-1.49c0-.422.135-.422.471-.26 1.076.519 2.186.907 3.397 1.102 2.454.357 4.842.097 7.095-1.005.505-.26.64-.194.605.357zm-9.28-26.903c2.152-.162 5.38-.13 7.835.065h.303c.201 0 .437.032.639.065.538.097.941.324 1.244.55 0 .033.067.065.1.098.37.389 1.682 1.912 1.951 2.366.639 1.037.942 2.172.942 3.436-.135-.097-.202-.13-.236-.162-1.58-1.653-3.53-2.464-5.851-2.496h-6.793c-1.076 0-2.085.227-3.094.616-1.076.421-1.95 1.102-2.858 1.977-.168-3.177 2.623-6.32 5.851-6.58zm-5.617 19.027c-.168-.714-.504-1.103-1.277-1.232-1.11-.162-1.917-1.167-1.951-2.27v-.712c0-1.135.404-1.491 1.58-1.524 1.178 0 1.38-.194 1.38-1.361 0-2.658 1.21-4.603 3.766-5.705.74-.324 1.513-.454 2.287-.454h6.793c3.329 0 6.019 2.594 6.053 5.802v.487c0 .94.269 1.199 1.244 1.199 1.312 0 1.681.389 1.715 1.653.067 1.653-.908 2.787-2.287 2.95-.605.064-.807.486-.908 1.004-.605 2.529-2.051 4.473-4.372 5.802-1.48.875-3.127 1.264-4.102 1.264-5.213 0-8.878-2.755-9.92-6.904m42.675 20.647c-.773 5.218-3.43 9.594-6.658 13.71-1.01 1.265-2.085 2.496-3.262 3.63-.471.455-.774.487-1.21 0-3.7-3.791-6.861-7.973-8.744-12.9-.942-2.398-1.514-4.894-1.312-7.52.37-4.278 2.69-7.26 6.793-8.88 4.237-1.686 9.282-.357 12.073 3.014.269.324.303.518-.034.81a280 280 0 0 0-4.506 4.343c-.303.292-.47.325-.774 0a54 54 0 0 0-1.984-1.912c-1.177-1.102-2.892-1.134-4.035-.065-1.143 1.07-1.11 2.723.067 3.857l4.338 4.182c.606.583 1.312.875 2.32.842a5.5 5.5 0 0 1-2.555.94c-3.531.519-6.961-1.88-7.5-5.283-.571-3.468 1.85-6.742 5.449-7.325 1.513-.227 2.992 0 4.338.713.37.194.706.324 1.11.064.672-.42.605-1.199-.169-1.62-3.396-1.88-7.869-1.2-10.458 1.653-2.153 2.366-2.758 5.154-1.682 8.136 1.11 3.079 3.464 4.894 6.793 5.445 4.103.68 8.307-2.01 9.35-5.9.134-.485.369-.874.705-1.198.538-.519 1.043-1.07 1.648-1.556.27.972.101 1.88 0 2.755zm4.305-9.497c-.135.227-.337.389-.538.583L51.386 43.01c-.807.778-1.177.778-1.984 0a442 442 0 0 0-4.036-3.858c-.336-.324-.47-.68-.269-1.102.168-.356.437-.518.84-.518.337 0 .606.194.842.421.874.875 1.782 1.718 2.69 2.593.706.649 1.076.649 1.782 0l8.878-8.557c.135-.13.27-.292.437-.421.404-.292.841-.26 1.21.065.337.291.404.713.169 1.102z" fill="#6c757d"></path><path d="M21 16.628c0 .76-.655 1.456-1.448 1.489-.759 0-1.517-.662-1.552-1.423 0-.761.655-1.456 1.448-1.489.793 0 1.517.629 1.552 1.423m5.895 6.184c-.618 1.37-1.6 2.012-2.909 2.098-1.273-.086-2.218-.771-2.836-2.098-.291-.6-.146-1.242.327-1.585.436-.342.982-.214 1.382.343.836 1.242 1.527 1.242 2.327 0 .364-.557.909-.685 1.345-.385.437.342.619.984.328 1.584zM30 16.661c0 .728-.716 1.456-1.5 1.456-.75 0-1.5-.695-1.5-1.456 0-.727.682-1.422 1.432-1.455.818-.033 1.568.662 1.568 1.455" fill="#6c757d"></path></svg>